<?xml version="1.0" standalone="no"?>
<!DOCTYPE svg PUBLIC "-//W3C//DTD SVG 1.1//EN" "http://www.w3.org/Graphics/SVG/1.1/DTD/svg11.dtd">
<svg version="1.1" width="1200" height="598" onload="init(evt)" viewBox="0 0 1200 598" xmlns="http://www.w3.org/2000/svg" xmlns:xlink="http://www.w3.org/1999/xlink">
<!-- Flame graph stack visualization. See https://github.com/brendangregg/FlameGraph for latest version, and http://www.brendangregg.com/flamegraphs.html for examples. -->
<!-- NOTES:  -->
<defs>
	<linearGradient id="background" y1="0" y2="1" x1="0" x2="0" >
		<stop stop-color="#eeeeee" offset="5%" />
		<stop stop-color="#eeeeb0" offset="95%" />
	</linearGradient>
</defs>
<style type="text/css">
	text { font-family:Verdana; font-size:12px; fill:rgb(0,0,0); }
	#search, #ignorecase { opacity:0.1; cursor:pointer; }
	#search:hover, #search.show, #ignorecase:hover, #ignorecase.show { opacity:1; }
	#subtitle { text-anchor:middle; font-color:rgb(160,160,160); }
	#title { text-anchor:middle; font-size:17px}
	#unzoom { cursor:pointer; }
	#frames > *:hover { stroke:black; stroke-width:0.5; cursor:pointer; }
	.hide { display:none; }
	.parent { opacity:0.5; }
</style>
<script type="text/ecmascript">
<![CDATA[
	"use strict";
	var details, searchbtn, unzoombtn, matchedtxt, svg, searching, currentSearchTerm, ignorecase, ignorecaseBtn;
	function init(evt) {
		details = document.getElementById("details").firstChild;
		searchbtn = document.getElementById("search");
		ignorecaseBtn = document.getElementById("ignorecase");
		unzoombtn = document.getElementById("unzoom");
		matchedtxt = document.getElementById("matched");
		svg = document.getElementsByTagName("svg")[0];
		searching = 0;
		currentSearchTerm = null;

		// use GET parameters to restore a flamegraphs state.
		var params = get_params();
		if (params.x && params.y)
			zoom(find_group(document.querySelector('[x="' + params.x + '"][y="' + params.y + '"]')));
                if (params.s) search(params.s);
	}

	// event listeners
	window.addEventListener("click", function(e) {
		var target = find_group(e.target);
		if (target) {
			if (target.nodeName == "a") {
				if (e.ctrlKey === false) return;
				e.preventDefault();
			}
			if (target.classList.contains("parent")) unzoom();
			zoom(target);
			if (!document.querySelector('.parent')) {
				clearzoom();
				return;
			}

			// set parameters for zoom state
			var el = target.querySelector("rect");
			if (el && el.attributes && el.attributes.y && el.attributes._orig_x) {
				var params = get_params()
				params.x = el.attributes._orig_x.value;
				params.y = el.attributes.y.value;
				history.replaceState(null, null, parse_params(params));
			}
		}
		else if (e.target.id == "unzoom") clearzoom();
		else if (e.target.id == "search") search_prompt();
		else if (e.target.id == "ignorecase") toggle_ignorecase();
	}, false)

	// mouse-over for info
	// show
	window.addEventListener("mouseover", function(e) {
		var target = find_group(e.target);
		if (target) details.nodeValue = "Function: " + g_to_text(target);
	}, false)

	// clear
	window.addEventListener("mouseout", function(e) {
		var target = find_group(e.target);
		if (target) details.nodeValue = ' ';
	}, false)

	// ctrl-F for search
	// ctrl-I to toggle case-sensitive search
	window.addEventListener("keydown",function (e) {
		if (e.keyCode === 114 || (e.ctrlKey && e.keyCode === 70)) {
			e.preventDefault();
			search_prompt();
		}
		else if (e.ctrlKey && e.keyCode === 73) {
			e.preventDefault();
			toggle_ignorecase();
		}
	}, false)

	// functions
	function get_params() {
		var params = {};
		var paramsarr = window.location.search.substr(1).split('&');
		for (var i = 0; i < paramsarr.length; ++i) {
			var tmp = paramsarr[i].split("=");
			if (!tmp[0] || !tmp[1]) continue;
			params[tmp[0]]  = decodeURIComponent(tmp[1]);
		}
		return params;
	}
	function parse_params(params) {
		var uri = "?";
		for (var key in params) {
			uri += key + '=' + encodeURIComponent(params[key]) + '&';
		}
		if (uri.slice(-1) == "&")
			uri = uri.substring(0, uri.length - 1);
		if (uri == '?')
			uri = window.location.href.split('?')[0];
		return uri;
	}
	function find_child(node, selector) {
		var children = node.querySelectorAll(selector);
		if (children.length) return children[0];
	}
	function find_group(node) {
		var parent = node.parentElement;
		if (!parent) return;
		if (parent.id == "frames") return node;
		return find_group(parent);
	}
	function orig_save(e, attr, val) {
		if (e.attributes["_orig_" + attr] != undefined) return;
		if (e.attributes[attr] == undefined) return;
		if (val == undefined) val = e.attributes[attr].value;
		e.setAttribute("_orig_" + attr, val);
	}
	function orig_load(e, attr) {
		if (e.attributes["_orig_"+attr] == undefined) return;
		e.attributes[attr].value = e.attributes["_orig_" + attr].value;
		e.removeAttribute("_orig_"+attr);
	}
	function g_to_text(e) {
		var text = find_child(e, "title").firstChild.nodeValue;
		return (text)
	}
	function g_to_func(e) {
		var func = g_to_text(e);
		// if there's any manipulation we want to do to the function
		// name before it's searched, do it here before returning.
		return (func);
	}
	function update_text(e) {
		var r = find_child(e, "rect");
		var t = find_child(e, "text");
		var w = parseFloat(r.attributes.width.value) -3;
		var txt = find_child(e, "title").textContent.replace(/\([^(]*\)$/,"");
		t.attributes.x.value = parseFloat(r.attributes.x.value) + 3;

		// Smaller than this size won't fit anything
		if (w < 2 * 12 * 0.59) {
			t.textContent = "";
			return;
		}

		t.textContent = txt;
		// Fit in full text width
		if (/^ *$/.test(txt) || t.getSubStringLength(0, txt.length) < w)
			return;

		for (var x = txt.length - 2; x > 0; x--) {
			if (t.getSubStringLength(0, x + 2) <= w) {
				t.textContent = txt.substring(0, x) + "..";
				return;
			}
		}
		t.textContent = "";
	}

	// zoom
	function zoom_reset(e) {
		if (e.attributes != undefined) {
			orig_load(e, "x");
			orig_load(e, "width");
		}
		if (e.childNodes == undefined) return;
		for (var i = 0, c = e.childNodes; i < c.length; i++) {
			zoom_reset(c[i]);
		}
	}
	function zoom_child(e, x, ratio) {
		if (e.attributes != undefined) {
			if (e.attributes.x != undefined) {
				orig_save(e, "x");
				e.attributes.x.value = (parseFloat(e.attributes.x.value) - x - 10) * ratio + 10;
				if (e.tagName == "text")
					e.attributes.x.value = find_child(e.parentNode, "rect[x]").attributes.x.value + 3;
			}
			if (e.attributes.width != undefined) {
				orig_save(e, "width");
				e.attributes.width.value = parseFloat(e.attributes.width.value) * ratio;
			}
		}

		if (e.childNodes == undefined) return;
		for (var i = 0, c = e.childNodes; i < c.length; i++) {
			zoom_child(c[i], x - 10, ratio);
		}
	}
	function zoom_parent(e) {
		if (e.attributes) {
			if (e.attributes.x != undefined) {
				orig_save(e, "x");
				e.attributes.x.value = 10;
			}
			if (e.attributes.width != undefined) {
				orig_save(e, "width");
				e.attributes.width.value = parseInt(svg.width.baseVal.value) - (10 * 2);
			}
		}
		if (e.childNodes == undefined) return;
		for (var i = 0, c = e.childNodes; i < c.length; i++) {
			zoom_parent(c[i]);
		}
	}
	function zoom(node) {
		var attr = find_child(node, "rect").attributes;
		var width = parseFloat(attr.width.value);
		var xmin = parseFloat(attr.x.value);
		var xmax = parseFloat(xmin + width);
		var ymin = parseFloat(attr.y.value);
		var ratio = (svg.width.baseVal.value - 2 * 10) / width;

		// XXX: Workaround for JavaScript float issues (fix me)
		var fudge = 0.0001;

		unzoombtn.classList.remove("hide");

		var el = document.getElementById("frames").children;
		for (var i = 0; i < el.length; i++) {
			var e = el[i];
			var a = find_child(e, "rect").attributes;
			var ex = parseFloat(a.x.value);
			var ew = parseFloat(a.width.value);
			var upstack;
			// Is it an ancestor
			if (0 == 0) {
				upstack = parseFloat(a.y.value) > ymin;
			} else {
				upstack = parseFloat(a.y.value) < ymin;
			}
			if (upstack) {
				// Direct ancestor
				if (ex <= xmin && (ex+ew+fudge) >= xmax) {
					e.classList.add("parent");
					zoom_parent(e);
					update_text(e);
				}
				// not in current path
				else
					e.classList.add("hide");
			}
			// Children maybe
			else {
				// no common path
				if (ex < xmin || ex + fudge >= xmax) {
					e.classList.add("hide");
				}
				else {
					zoom_child(e, xmin, ratio);
					update_text(e);
				}
			}
		}
		search();
	}
	function unzoom() {
		unzoombtn.classList.add("hide");
		var el = document.getElementById("frames").children;
		for(var i = 0; i < el.length; i++) {
			el[i].classList.remove("parent");
			el[i].classList.remove("hide");
			zoom_reset(el[i]);
			update_text(el[i]);
		}
		search();
	}
	function clearzoom() {
		unzoom();

		// remove zoom state
		var params = get_params();
		if (params.x) delete params.x;
		if (params.y) delete params.y;
		history.replaceState(null, null, parse_params(params));
	}

	// search
	function toggle_ignorecase() {
		ignorecase = !ignorecase;
		if (ignorecase) {
			ignorecaseBtn.classList.add("show");
		} else {
			ignorecaseBtn.classList.remove("show");
		}
		reset_search();
		search();
	}
	function reset_search() {
		var el = document.querySelectorAll("#frames rect");
		for (var i = 0; i < el.length; i++) {
			orig_load(el[i], "fill")
		}
		var params = get_params();
		delete params.s;
		history.replaceState(null, null, parse_params(params));
	}
	function search_prompt() {
		if (!searching) {
			var term = prompt("Enter a search term (regexp " +
			    "allowed, eg: ^ext4_)"
			    + (ignorecase ? ", ignoring case" : "")
			    + "\nPress Ctrl-i to toggle case sensitivity", "");
			if (term != null) search(term);
		} else {
			reset_search();
			searching = 0;
			currentSearchTerm = null;
			searchbtn.classList.remove("show");
			searchbtn.firstChild.nodeValue = "Search"
			matchedtxt.classList.add("hide");
			matchedtxt.firstChild.nodeValue = ""
		}
	}
	function search(term) {
		if (term) currentSearchTerm = term;

		var re = new RegExp(currentSearchTerm, ignorecase ? 'i' : '');
		var el = document.getElementById("frames").children;
		var matches = new Object();
		var maxwidth = 0;
		for (var i = 0; i < el.length; i++) {
			var e = el[i];
			var func = g_to_func(e);
			var rect = find_child(e, "rect");
			if (func == null || rect == null)
				continue;

			// Save max width. Only works as we have a root frame
			var w = parseFloat(rect.attributes.width.value);
			if (w > maxwidth)
				maxwidth = w;

			if (func.match(re)) {
				// highlight
				var x = parseFloat(rect.attributes.x.value);
				orig_save(rect, "fill");
				rect.attributes.fill.value = "rgb(230,0,230)";

				// remember matches
				if (matches[x] == undefined) {
					matches[x] = w;
				} else {
					if (w > matches[x]) {
						// overwrite with parent
						matches[x] = w;
					}
				}
				searching = 1;
			}
		}
		if (!searching)
			return;
		var params = get_params();
		params.s = currentSearchTerm;
		history.replaceState(null, null, parse_params(params));

		searchbtn.classList.add("show");
		searchbtn.firstChild.nodeValue = "Reset Search";

		// calculate percent matched, excluding vertical overlap
		var count = 0;
		var lastx = -1;
		var lastw = 0;
		var keys = Array();
		for (k in matches) {
			if (matches.hasOwnProperty(k))
				keys.push(k);
		}
		// sort the matched frames by their x location
		// ascending, then width descending
		keys.sort(function(a, b){
			return a - b;
		});
		// Step through frames saving only the biggest bottom-up frames
		// thanks to the sort order. This relies on the tree property
		// where children are always smaller than their parents.
		var fudge = 0.0001;	// JavaScript floating point
		for (var k in keys) {
			var x = parseFloat(keys[k]);
			var w = matches[keys[k]];
			if (x >= lastx + lastw - fudge) {
				count += w;
				lastx = x;
				lastw = w;
			}
		}
		// display matched percent
		matchedtxt.classList.remove("hide");
		var pct = 100 * count / maxwidth;
		if (pct != 100) pct = pct.toFixed(1)
		matchedtxt.firstChild.nodeValue = "Matched: " + pct + "%";
	}
]]>
</script>
<rect x="0.0" y="0" width="1200.0" height="598.0" fill="url(#background)"  />
<text id="title" x="600.00" y="24" >Flame Graph</text>
<text id="details" x="10.00" y="581" > </text>
<text id="unzoom" x="10.00" y="24" class="hide">Reset Zoom</text>
<text id="search" x="1090.00" y="24" >Search</text>
<text id="ignorecase" x="1174.00" y="24" >ic</text>
<text id="matched" x="1090.00" y="581" > </text>
<g id="frames">
<g >
<title>[unknown] (2 samples, 0.01%)</title><rect x="24.9" y="277" width="0.1" height="15.0" fill="rgb(215,191,49)" rx="2" ry="2" />
<text  x="27.85" y="287.5" ></text>
</g>
<g >
<title>_dl_sysdep_start (4 samples, 0.02%)</title><rect x="10.5" y="501" width="0.3" height="15.0" fill="rgb(219,189,52)" rx="2" ry="2" />
<text  x="13.55" y="511.5" ></text>
</g>
<g >
<title>[unknown] (5,263 samples, 24.45%)</title><rect x="45.1" y="469" width="288.5" height="15.0" fill="rgb(216,14,13)" rx="2" ry="2" />
<text  x="48.13" y="479.5" >[unknown]</text>
</g>
<g >
<title>[unknown] (3 samples, 0.01%)</title><rect x="24.8" y="405" width="0.2" height="15.0" fill="rgb(211,93,2)" rx="2" ry="2" />
<text  x="27.80" y="415.5" ></text>
</g>
<g >
<title>[unknown] (2 samples, 0.01%)</title><rect x="24.9" y="261" width="0.1" height="15.0" fill="rgb(249,61,34)" rx="2" ry="2" />
<text  x="27.85" y="271.5" ></text>
</g>
<g >
<title>[unknown] (1,944 samples, 9.03%)</title><rect x="227.0" y="261" width="106.6" height="15.0" fill="rgb(226,125,2)" rx="2" ry="2" />
<text  x="230.05" y="271.5" >[unknown]</text>
</g>
<g >
<title>[unknown] (2,132 samples, 9.90%)</title><rect x="216.7" y="277" width="116.9" height="15.0" fill="rgb(230,47,32)" rx="2" ry="2" />
<text  x="219.74" y="287.5" >[unknown]</text>
</g>
<g >
<title>[unknown] (1,056 samples, 4.91%)</title><rect x="275.7" y="213" width="57.9" height="15.0" fill="rgb(216,77,22)" rx="2" ry="2" />
<text  x="278.72" y="223.5" >[unkno..</text>
</g>
<g >
<title>[unknown] (10 samples, 0.05%)</title><rect x="10.0" y="373" width="0.5" height="15.0" fill="rgb(218,199,52)" rx="2" ry="2" />
<text  x="13.00" y="383.5" ></text>
</g>
<g >
<title>[unknown] (2 samples, 0.01%)</title><rect x="1189.1" y="501" width="0.1" height="15.0" fill="rgb(211,66,37)" rx="2" ry="2" />
<text  x="1192.07" y="511.5" ></text>
</g>
<g >
<title>[unknown] (2,909 samples, 13.51%)</title><rect x="174.2" y="309" width="159.4" height="15.0" fill="rgb(252,59,32)" rx="2" ry="2" />
<text  x="177.16" y="319.5" >[unknown]</text>
</g>
<g >
<title>[unknown] (276 samples, 1.28%)</title><rect x="1164.1" y="341" width="15.1" height="15.0" fill="rgb(243,201,53)" rx="2" ry="2" />
<text  x="1167.07" y="351.5" ></text>
</g>
<g >
<title>[unknown] (192 samples, 0.89%)</title><rect x="1093.1" y="485" width="10.5" height="15.0" fill="rgb(232,85,49)" rx="2" ry="2" />
<text  x="1096.10" y="495.5" ></text>
</g>
<g >
<title>[unknown] (2 samples, 0.01%)</title><rect x="334.0" y="469" width="0.1" height="15.0" fill="rgb(230,167,3)" rx="2" ry="2" />
<text  x="337.04" y="479.5" ></text>
</g>
<g >
<title>[unknown] (3 samples, 0.01%)</title><rect x="24.8" y="421" width="0.2" height="15.0" fill="rgb(211,191,32)" rx="2" ry="2" />
<text  x="27.80" y="431.5" ></text>
</g>
<g >
<title>[unknown] (185 samples, 0.86%)</title><rect x="1093.5" y="453" width="10.1" height="15.0" fill="rgb(206,14,54)" rx="2" ry="2" />
<text  x="1096.48" y="463.5" ></text>
</g>
<g >
<title>[unknown] (165 samples, 0.77%)</title><rect x="1094.6" y="437" width="9.0" height="15.0" fill="rgb(244,229,33)" rx="2" ry="2" />
<text  x="1097.58" y="447.5" ></text>
</g>
<g >
<title>[unknown] (14 samples, 0.07%)</title><rect x="1189.2" y="469" width="0.8" height="15.0" fill="rgb(218,152,24)" rx="2" ry="2" />
<text  x="1192.23" y="479.5" ></text>
</g>
<g >
<title>[unknown] (2 samples, 0.01%)</title><rect x="24.9" y="309" width="0.1" height="15.0" fill="rgb(241,154,34)" rx="2" ry="2" />
<text  x="27.85" y="319.5" ></text>
</g>
<g >
<title>[unknown] (12 samples, 0.06%)</title><rect x="1189.3" y="325" width="0.7" height="15.0" fill="rgb(213,207,5)" rx="2" ry="2" />
<text  x="1192.34" y="335.5" ></text>
</g>
<g >
<title>[unknown] (21 samples, 0.10%)</title><rect x="1102.5" y="245" width="1.1" height="15.0" fill="rgb(249,169,5)" rx="2" ry="2" />
<text  x="1105.47" y="255.5" ></text>
</g>
<g >
<title>[unknown] (2 samples, 0.01%)</title><rect x="24.9" y="229" width="0.1" height="15.0" fill="rgb(206,67,21)" rx="2" ry="2" />
<text  x="27.85" y="239.5" ></text>
</g>
<g >
<title>[unknown] (3,323 samples, 15.43%)</title><rect x="151.5" y="325" width="182.1" height="15.0" fill="rgb(220,80,41)" rx="2" ry="2" />
<text  x="154.46" y="335.5" >[unknown]</text>
</g>
<g >
<title>[unknown] (86 samples, 0.40%)</title><rect x="1174.5" y="293" width="4.7" height="15.0" fill="rgb(228,191,19)" rx="2" ry="2" />
<text  x="1177.49" y="303.5" ></text>
</g>
<g >
<title>[unknown] (3 samples, 0.01%)</title><rect x="333.8" y="469" width="0.1" height="15.0" fill="rgb(252,148,21)" rx="2" ry="2" />
<text  x="336.76" y="479.5" ></text>
</g>
<g >
<title>[unknown] (10 samples, 0.05%)</title><rect x="10.0" y="357" width="0.5" height="15.0" fill="rgb(210,184,11)" rx="2" ry="2" />
<text  x="13.00" y="367.5" ></text>
</g>
<g >
<title>main (259 samples, 1.20%)</title><rect x="10.8" y="501" width="14.2" height="15.0" fill="rgb(234,28,12)" rx="2" ry="2" />
<text  x="13.77" y="511.5" ></text>
</g>
<g >
<title>[unknown] (10 samples, 0.05%)</title><rect x="10.0" y="469" width="0.5" height="15.0" fill="rgb(242,11,12)" rx="2" ry="2" />
<text  x="13.00" y="479.5" ></text>
</g>
<g >
<title>[unknown] (12 samples, 0.06%)</title><rect x="1189.3" y="309" width="0.7" height="15.0" fill="rgb(244,128,35)" rx="2" ry="2" />
<text  x="1192.34" y="319.5" ></text>
</g>
<g >
<title>[unknown] (2 samples, 0.01%)</title><rect x="24.9" y="325" width="0.1" height="15.0" fill="rgb(214,222,6)" rx="2" ry="2" />
<text  x="27.85" y="335.5" ></text>
</g>
<g >
<title>[unknown] (1,362 samples, 6.33%)</title><rect x="258.9" y="229" width="74.7" height="15.0" fill="rgb(206,209,53)" rx="2" ry="2" />
<text  x="261.95" y="239.5" >[unknown]</text>
</g>
<g >
<title>[unknown] (10 samples, 0.05%)</title><rect x="10.0" y="389" width="0.5" height="15.0" fill="rgb(220,16,39)" rx="2" ry="2" />
<text  x="13.00" y="399.5" ></text>
</g>
<g >
<title>[unknown] (827 samples, 3.84%)</title><rect x="288.3" y="197" width="45.3" height="15.0" fill="rgb(219,164,37)" rx="2" ry="2" />
<text  x="291.27" y="207.5" >[unk..</text>
</g>
<g >
<title>all (21,529 samples, 100%)</title><rect x="10.0" y="549" width="1180.0" height="15.0" fill="rgb(205,123,46)" rx="2" ry="2" />
<text  x="13.00" y="559.5" ></text>
</g>
<g >
<title>[unknown] (150 samples, 0.70%)</title><rect x="1095.4" y="405" width="8.2" height="15.0" fill="rgb(215,134,1)" rx="2" ry="2" />
<text  x="1098.40" y="415.5" ></text>
</g>
<g >
<title>[unknown] (37 samples, 0.17%)</title><rect x="1101.6" y="325" width="2.0" height="15.0" fill="rgb(235,59,47)" rx="2" ry="2" />
<text  x="1104.59" y="335.5" ></text>
</g>
<g >
<title>[unknown] (5 samples, 0.02%)</title><rect x="1178.9" y="149" width="0.3" height="15.0" fill="rgb(217,194,6)" rx="2" ry="2" />
<text  x="1181.93" y="159.5" ></text>
</g>
<g >
<title>[unknown] (14 samples, 0.07%)</title><rect x="1102.9" y="229" width="0.7" height="15.0" fill="rgb(228,86,3)" rx="2" ry="2" />
<text  x="1105.85" y="239.5" ></text>
</g>
<g >
<title>[unknown] (699 samples, 3.25%)</title><rect x="295.3" y="181" width="38.3" height="15.0" fill="rgb(237,76,48)" rx="2" ry="2" />
<text  x="298.28" y="191.5" >[un..</text>
</g>
<g >
<title>__GI___open64_nocancel (3 samples, 0.01%)</title><rect x="333.8" y="485" width="0.1" height="15.0" fill="rgb(248,21,38)" rx="2" ry="2" />
<text  x="336.76" y="495.5" ></text>
</g>
<g >
<title>[unknown] (3 samples, 0.01%)</title><rect x="1179.0" y="117" width="0.2" height="15.0" fill="rgb(235,208,48)" rx="2" ry="2" />
<text  x="1182.04" y="127.5" ></text>
</g>
<g >
<title>[unknown] (3 samples, 0.01%)</title><rect x="24.8" y="485" width="0.2" height="15.0" fill="rgb(221,60,12)" rx="2" ry="2" />
<text  x="27.80" y="495.5" ></text>
</g>
<g >
<title>[unknown] (5 samples, 0.02%)</title><rect x="10.3" y="341" width="0.2" height="15.0" fill="rgb(216,153,43)" rx="2" ry="2" />
<text  x="13.27" y="351.5" ></text>
</g>
<g >
<title>[unknown] (520 samples, 2.42%)</title><rect x="1150.7" y="373" width="28.5" height="15.0" fill="rgb(241,133,47)" rx="2" ry="2" />
<text  x="1153.70" y="383.5" >[u..</text>
</g>
<g >
<title>dl_main (3 samples, 0.01%)</title><rect x="10.6" y="485" width="0.2" height="15.0" fill="rgb(242,153,11)" rx="2" ry="2" />
<text  x="13.60" y="495.5" ></text>
</g>
<g >
<title>[unknown] (272 samples, 1.26%)</title><rect x="1088.7" y="501" width="14.9" height="15.0" fill="rgb(232,156,45)" rx="2" ry="2" />
<text  x="1091.71" y="511.5" ></text>
</g>
<g >
<title>[unknown] (2 samples, 0.01%)</title><rect x="1189.1" y="485" width="0.1" height="15.0" fill="rgb(208,139,41)" rx="2" ry="2" />
<text  x="1192.07" y="495.5" ></text>
</g>
<g >
<title>[unknown] (2 samples, 0.01%)</title><rect x="1103.5" y="197" width="0.1" height="15.0" fill="rgb(231,118,10)" rx="2" ry="2" />
<text  x="1106.51" y="207.5" ></text>
</g>
<g >
<title>[unknown] (3 samples, 0.01%)</title><rect x="24.8" y="437" width="0.2" height="15.0" fill="rgb(248,100,47)" rx="2" ry="2" />
<text  x="27.80" y="447.5" ></text>
</g>
<g >
<title>[unknown] (3 samples, 0.01%)</title><rect x="24.8" y="453" width="0.2" height="15.0" fill="rgb(224,186,46)" rx="2" ry="2" />
<text  x="27.80" y="463.5" ></text>
</g>
<g >
<title>[unknown] (159 samples, 0.74%)</title><rect x="1094.9" y="421" width="8.7" height="15.0" fill="rgb(210,148,51)" rx="2" ry="2" />
<text  x="1097.91" y="431.5" ></text>
</g>
<g >
<title>[unknown] (4 samples, 0.02%)</title><rect x="10.3" y="293" width="0.2" height="15.0" fill="rgb(212,175,16)" rx="2" ry="2" />
<text  x="13.33" y="303.5" ></text>
</g>
<g >
<title>[unknown] (1,122 samples, 5.21%)</title><rect x="1117.7" y="469" width="61.5" height="15.0" fill="rgb(207,108,12)" rx="2" ry="2" />
<text  x="1120.71" y="479.5" >[unkno..</text>
</g>
<g >
<title>[unknown] (373 samples, 1.73%)</title><rect x="1158.8" y="357" width="20.4" height="15.0" fill="rgb(208,121,52)" rx="2" ry="2" />
<text  x="1161.76" y="367.5" ></text>
</g>
<g >
<title>[unknown] (14 samples, 0.07%)</title><rect x="1189.2" y="517" width="0.8" height="15.0" fill="rgb(215,178,40)" rx="2" ry="2" />
<text  x="1192.23" y="527.5" ></text>
</g>
<g >
<title>[unknown] (23 samples, 0.11%)</title><rect x="1102.4" y="261" width="1.2" height="15.0" fill="rgb(213,76,22)" rx="2" ry="2" />
<text  x="1105.36" y="271.5" ></text>
</g>
<g >
<title>[unknown] (6 samples, 0.03%)</title><rect x="1103.3" y="213" width="0.3" height="15.0" fill="rgb(209,192,4)" rx="2" ry="2" />
<text  x="1106.29" y="223.5" ></text>
</g>
<g >
<title>[unknown] (24 samples, 0.11%)</title><rect x="1102.3" y="277" width="1.3" height="15.0" fill="rgb(241,85,24)" rx="2" ry="2" />
<text  x="1105.30" y="287.5" ></text>
</g>
<g >
<title>_dl_map_object (5 samples, 0.02%)</title><rect x="333.7" y="517" width="0.2" height="15.0" fill="rgb(205,35,54)" rx="2" ry="2" />
<text  x="336.65" y="527.5" ></text>
</g>
<g >
<title>[unknown] (36 samples, 0.17%)</title><rect x="1101.6" y="309" width="2.0" height="15.0" fill="rgb(235,26,9)" rx="2" ry="2" />
<text  x="1104.65" y="319.5" ></text>
</g>
<g >
<title>[unknown] (596 samples, 2.77%)</title><rect x="1146.5" y="389" width="32.7" height="15.0" fill="rgb(240,223,38)" rx="2" ry="2" />
<text  x="1149.54" y="399.5" >[u..</text>
</g>
<g >
<title>[unknown] (2 samples, 0.01%)</title><rect x="24.9" y="245" width="0.1" height="15.0" fill="rgb(225,221,44)" rx="2" ry="2" />
<text  x="27.85" y="255.5" ></text>
</g>
<g >
<title>[unknown] (1,639 samples, 7.61%)</title><rect x="243.8" y="245" width="89.8" height="15.0" fill="rgb(222,213,26)" rx="2" ry="2" />
<text  x="246.76" y="255.5" >[unknown]</text>
</g>
<g >
<title>[unknown] (235 samples, 1.09%)</title><rect x="320.7" y="133" width="12.9" height="15.0" fill="rgb(250,126,17)" rx="2" ry="2" />
<text  x="323.72" y="143.5" ></text>
</g>
<g >
<title>mitigated (21,515 samples, 99.93%)</title><rect x="10.0" y="533" width="1179.2" height="15.0" fill="rgb(243,57,5)" rx="2" ry="2" />
<text  x="13.00" y="543.5" >mitigated</text>
</g>
<g >
<title>[unknown] (7 samples, 0.03%)</title><rect x="1178.8" y="165" width="0.4" height="15.0" fill="rgb(239,39,47)" rx="2" ry="2" />
<text  x="1181.82" y="175.5" ></text>
</g>
<g >
<title>[unknown] (3 samples, 0.01%)</title><rect x="24.8" y="389" width="0.2" height="15.0" fill="rgb(246,60,19)" rx="2" ry="2" />
<text  x="27.80" y="399.5" ></text>
</g>
<g >
<title>[unknown] (37 samples, 0.17%)</title><rect x="1177.2" y="245" width="2.0" height="15.0" fill="rgb(205,63,43)" rx="2" ry="2" />
<text  x="1180.17" y="255.5" ></text>
</g>
<g >
<title>read (1,377 samples, 6.40%)</title><rect x="1103.7" y="517" width="75.5" height="15.0" fill="rgb(224,116,4)" rx="2" ry="2" />
<text  x="1106.73" y="527.5" >read</text>
</g>
<g >
<title>[unknown] (585 samples, 2.72%)</title><rect x="301.5" y="165" width="32.1" height="15.0" fill="rgb(230,162,47)" rx="2" ry="2" />
<text  x="304.53" y="175.5" >[u..</text>
</g>
<g >
<title>[unknown] (14 samples, 0.07%)</title><rect x="1189.2" y="405" width="0.8" height="15.0" fill="rgb(215,207,42)" rx="2" ry="2" />
<text  x="1192.23" y="415.5" ></text>
</g>
<g >
<title>[unknown] (401 samples, 1.86%)</title><rect x="10.0" y="517" width="22.0" height="15.0" fill="rgb(208,224,14)" rx="2" ry="2" />
<text  x="13.00" y="527.5" >[..</text>
</g>
<g >
<title>[unknown] (4 samples, 0.02%)</title><rect x="1179.0" y="133" width="0.2" height="15.0" fill="rgb(242,159,37)" rx="2" ry="2" />
<text  x="1181.98" y="143.5" ></text>
</g>
<g >
<title>[unknown] (4,883 samples, 22.68%)</title><rect x="66.0" y="421" width="267.6" height="15.0" fill="rgb(211,131,29)" rx="2" ry="2" />
<text  x="68.96" y="431.5" >[unknown]</text>
</g>
<g >
<title>[unknown] (2 samples, 0.01%)</title><rect x="334.0" y="405" width="0.1" height="15.0" fill="rgb(247,82,49)" rx="2" ry="2" />
<text  x="337.04" y="415.5" ></text>
</g>
<g >
<title>[unknown] (5,462 samples, 25.37%)</title><rect x="34.2" y="501" width="299.4" height="15.0" fill="rgb(245,141,18)" rx="2" ry="2" />
<text  x="37.23" y="511.5" >[unknown]</text>
</g>
<g >
<title>[unknown] (46 samples, 0.21%)</title><rect x="1101.1" y="341" width="2.5" height="15.0" fill="rgb(227,163,38)" rx="2" ry="2" />
<text  x="1104.10" y="351.5" ></text>
</g>
<g >
<title>[unknown] (4,480 samples, 20.81%)</title><rect x="88.0" y="389" width="245.6" height="15.0" fill="rgb(246,21,23)" rx="2" ry="2" />
<text  x="91.05" y="399.5" >[unknown]</text>
</g>
<g >
<title>[unknown] (14 samples, 0.07%)</title><rect x="1189.2" y="501" width="0.8" height="15.0" fill="rgb(226,94,25)" rx="2" ry="2" />
<text  x="1192.23" y="511.5" ></text>
</g>
<g >
<title>[unknown] (14 samples, 0.07%)</title><rect x="1189.2" y="373" width="0.8" height="15.0" fill="rgb(213,89,34)" rx="2" ry="2" />
<text  x="1192.23" y="383.5" ></text>
</g>
<g >
<title>uint64_t_secure_load_impl (127 samples, 0.59%)</title><rect x="25.0" y="501" width="7.0" height="15.0" fill="rgb(219,224,9)" rx="2" ry="2" />
<text  x="28.02" y="511.5" ></text>
</g>
<g >
<title>[unknown] (2 samples, 0.01%)</title><rect x="334.0" y="501" width="0.1" height="15.0" fill="rgb(209,85,31)" rx="2" ry="2" />
<text  x="337.04" y="511.5" ></text>
</g>
<g >
<title>[unknown] (4,169 samples, 19.36%)</title><rect x="105.1" y="357" width="228.5" height="15.0" fill="rgb(241,145,32)" rx="2" ry="2" />
<text  x="108.09" y="367.5" >[unknown]</text>
</g>
<g >
<title>[unknown] (3 samples, 0.01%)</title><rect x="24.8" y="469" width="0.2" height="15.0" fill="rgb(222,171,43)" rx="2" ry="2" />
<text  x="27.80" y="479.5" ></text>
</g>
<g >
<title>[unknown] (2 samples, 0.01%)</title><rect x="334.0" y="421" width="0.1" height="15.0" fill="rgb(238,30,23)" rx="2" ry="2" />
<text  x="337.04" y="431.5" ></text>
</g>
<g >
<title>[unknown] (3 samples, 0.01%)</title><rect x="24.8" y="357" width="0.2" height="15.0" fill="rgb(249,229,32)" rx="2" ry="2" />
<text  x="27.80" y="367.5" ></text>
</g>
<g >
<title>[unknown] (4,742 samples, 22.03%)</title><rect x="73.7" y="405" width="259.9" height="15.0" fill="rgb(227,25,5)" rx="2" ry="2" />
<text  x="76.69" y="415.5" >[unknown]</text>
</g>
<g >
<title>[unknown] (14 samples, 0.07%)</title><rect x="1189.2" y="421" width="0.8" height="15.0" fill="rgb(214,137,23)" rx="2" ry="2" />
<text  x="1192.23" y="431.5" ></text>
</g>
<g >
<title>[unknown] (5 samples, 0.02%)</title><rect x="10.3" y="325" width="0.2" height="15.0" fill="rgb(253,103,25)" rx="2" ry="2" />
<text  x="13.27" y="335.5" ></text>
</g>
<g >
<title>[unknown] (3 samples, 0.01%)</title><rect x="24.8" y="373" width="0.2" height="15.0" fill="rgb(229,10,27)" rx="2" ry="2" />
<text  x="27.80" y="383.5" ></text>
</g>
<g >
<title>[unknown] (1,138 samples, 5.29%)</title><rect x="1116.8" y="485" width="62.4" height="15.0" fill="rgb(214,187,15)" rx="2" ry="2" />
<text  x="1119.83" y="495.5" >[unkno..</text>
</g>
<g >
<title>[unknown] (3 samples, 0.01%)</title><rect x="333.8" y="421" width="0.1" height="15.0" fill="rgb(245,76,26)" rx="2" ry="2" />
<text  x="336.76" y="431.5" ></text>
</g>
<g >
<title>[unknown] (10 samples, 0.05%)</title><rect x="10.0" y="501" width="0.5" height="15.0" fill="rgb(246,169,7)" rx="2" ry="2" />
<text  x="13.00" y="511.5" ></text>
</g>
<g >
<title>[unknown] (13 samples, 0.06%)</title><rect x="1189.3" y="357" width="0.7" height="15.0" fill="rgb(233,9,29)" rx="2" ry="2" />
<text  x="1192.29" y="367.5" ></text>
</g>
<g >
<title>[unknown] (30 samples, 0.14%)</title><rect x="332.0" y="101" width="1.6" height="15.0" fill="rgb(241,27,51)" rx="2" ry="2" />
<text  x="334.95" y="111.5" ></text>
</g>
<g >
<title>[unknown] (10 samples, 0.05%)</title><rect x="10.0" y="421" width="0.5" height="15.0" fill="rgb(209,63,7)" rx="2" ry="2" />
<text  x="13.00" y="431.5" ></text>
</g>
<g >
<title>[unknown] (858 samples, 3.99%)</title><rect x="1132.2" y="437" width="47.0" height="15.0" fill="rgb(242,91,6)" rx="2" ry="2" />
<text  x="1135.18" y="447.5" >[unk..</text>
</g>
<g >
<title>[unknown] (96 samples, 0.45%)</title><rect x="328.3" y="117" width="5.3" height="15.0" fill="rgb(225,42,40)" rx="2" ry="2" />
<text  x="331.34" y="127.5" ></text>
</g>
<g >
<title>[unknown] (882 samples, 4.10%)</title><rect x="1130.9" y="453" width="48.3" height="15.0" fill="rgb(206,215,24)" rx="2" ry="2" />
<text  x="1133.86" y="463.5" >[unk..</text>
</g>
<g >
<title>[unknown] (4 samples, 0.02%)</title><rect x="10.3" y="309" width="0.2" height="15.0" fill="rgb(242,22,41)" rx="2" ry="2" />
<text  x="13.33" y="319.5" ></text>
</g>
<g >
<title>[unknown] (4,362 samples, 20.26%)</title><rect x="94.5" y="373" width="239.1" height="15.0" fill="rgb(226,138,23)" rx="2" ry="2" />
<text  x="97.52" y="383.5" >[unknown]</text>
</g>
<g >
<title>[unknown] (375 samples, 1.74%)</title><rect x="313.0" y="149" width="20.6" height="15.0" fill="rgb(230,150,46)" rx="2" ry="2" />
<text  x="316.04" y="159.5" ></text>
</g>
<g >
<title>[unknown] (14 samples, 0.07%)</title><rect x="1189.2" y="389" width="0.8" height="15.0" fill="rgb(244,80,28)" rx="2" ry="2" />
<text  x="1192.23" y="399.5" ></text>
</g>
<g >
<title>[unknown] (3 samples, 0.01%)</title><rect x="10.4" y="277" width="0.1" height="15.0" fill="rgb(232,105,27)" rx="2" ry="2" />
<text  x="13.38" y="287.5" ></text>
</g>
<g >
<title>[unknown] (11 samples, 0.05%)</title><rect x="1178.6" y="181" width="0.6" height="15.0" fill="rgb(216,186,2)" rx="2" ry="2" />
<text  x="1181.60" y="191.5" ></text>
</g>
<g >
<title>[unknown] (10 samples, 0.05%)</title><rect x="10.0" y="405" width="0.5" height="15.0" fill="rgb(230,112,7)" rx="2" ry="2" />
<text  x="13.00" y="415.5" ></text>
</g>
<g >
<title>[unknown] (3 samples, 0.01%)</title><rect x="10.4" y="261" width="0.1" height="15.0" fill="rgb(208,178,18)" rx="2" ry="2" />
<text  x="13.38" y="271.5" ></text>
</g>
<g >
<title>[unknown] (3 samples, 0.01%)</title><rect x="333.8" y="405" width="0.1" height="15.0" fill="rgb(227,7,24)" rx="2" ry="2" />
<text  x="336.76" y="415.5" ></text>
</g>
<g >
<title>main (14,039 samples, 65.21%)</title><rect x="334.1" y="517" width="769.5" height="15.0" fill="rgb(237,175,5)" rx="2" ry="2" />
<text  x="337.15" y="527.5" >main</text>
</g>
<g >
<title>[unknown] (28 samples, 0.13%)</title><rect x="1102.1" y="293" width="1.5" height="15.0" fill="rgb(209,171,8)" rx="2" ry="2" />
<text  x="1105.09" y="303.5" ></text>
</g>
<g >
<title>[unknown] (5,111 samples, 23.74%)</title><rect x="53.5" y="453" width="280.1" height="15.0" fill="rgb(236,185,48)" rx="2" ry="2" />
<text  x="56.46" y="463.5" >[unknown]</text>
</g>
<g >
<title>uint64_t_secure_load_impl (182 samples, 0.85%)</title><rect x="1179.2" y="517" width="10.0" height="15.0" fill="rgb(253,145,13)" rx="2" ry="2" />
<text  x="1182.20" y="527.5" ></text>
</g>
<g >
<title>_dl_relocate_object (2 samples, 0.01%)</title><rect x="10.6" y="469" width="0.1" height="15.0" fill="rgb(228,89,30)" rx="2" ry="2" />
<text  x="13.60" y="479.5" ></text>
</g>
<g >
<title>[unknown] (5,066 samples, 23.53%)</title><rect x="55.9" y="437" width="277.7" height="15.0" fill="rgb(244,51,5)" rx="2" ry="2" />
<text  x="58.93" y="447.5" >[unknown]</text>
</g>
<g >
<title>[unknown] (16 samples, 0.07%)</title><rect x="1178.3" y="197" width="0.9" height="15.0" fill="rgb(229,168,32)" rx="2" ry="2" />
<text  x="1181.33" y="207.5" ></text>
</g>
<g >
<title>[unknown] (95 samples, 0.44%)</title><rect x="1098.4" y="373" width="5.2" height="15.0" fill="rgb(239,79,4)" rx="2" ry="2" />
<text  x="1101.41" y="383.5" ></text>
</g>
<g >
<title>open_path (3 samples, 0.01%)</title><rect x="333.8" y="501" width="0.1" height="15.0" fill="rgb(248,222,51)" rx="2" ry="2" />
<text  x="336.76" y="511.5" ></text>
</g>
<g >
<title>[unknown] (5,327 samples, 24.74%)</title><rect x="41.6" y="485" width="292.0" height="15.0" fill="rgb(244,21,20)" rx="2" ry="2" />
<text  x="44.63" y="495.5" >[unknown]</text>
</g>
<g >
<title>[unknown] (2 samples, 0.01%)</title><rect x="333.5" y="37" width="0.1" height="15.0" fill="rgb(223,201,38)" rx="2" ry="2" />
<text  x="336.49" y="47.5" ></text>
</g>
<g >
<title>[unknown] (2 samples, 0.01%)</title><rect x="334.0" y="485" width="0.1" height="15.0" fill="rgb(225,222,49)" rx="2" ry="2" />
<text  x="337.04" y="495.5" ></text>
</g>
<g >
<title>[unknown] (2 samples, 0.01%)</title><rect x="24.9" y="293" width="0.1" height="15.0" fill="rgb(215,209,52)" rx="2" ry="2" />
<text  x="27.85" y="303.5" ></text>
</g>
<g >
<title>[unknown] (30 samples, 0.14%)</title><rect x="1177.6" y="229" width="1.6" height="15.0" fill="rgb(243,123,50)" rx="2" ry="2" />
<text  x="1180.56" y="239.5" ></text>
</g>
<g >
<title>[unknown] (12 samples, 0.06%)</title><rect x="1189.3" y="341" width="0.7" height="15.0" fill="rgb(228,141,38)" rx="2" ry="2" />
<text  x="1192.34" y="351.5" ></text>
</g>
<g >
<title>[unknown] (14 samples, 0.07%)</title><rect x="1189.2" y="485" width="0.8" height="15.0" fill="rgb(220,122,32)" rx="2" ry="2" />
<text  x="1192.23" y="495.5" ></text>
</g>
<g >
<title>[unknown] (3 samples, 0.01%)</title><rect x="333.8" y="373" width="0.1" height="15.0" fill="rgb(221,63,7)" rx="2" ry="2" />
<text  x="336.76" y="383.5" ></text>
</g>
<g >
<title>[unknown] (3 samples, 0.01%)</title><rect x="333.4" y="69" width="0.2" height="15.0" fill="rgb(213,17,0)" rx="2" ry="2" />
<text  x="336.43" y="79.5" ></text>
</g>
<g >
<title>[unknown] (14 samples, 0.07%)</title><rect x="1189.2" y="453" width="0.8" height="15.0" fill="rgb(237,95,20)" rx="2" ry="2" />
<text  x="1192.23" y="463.5" ></text>
</g>
<g >
<title>[unknown] (2 samples, 0.01%)</title><rect x="334.0" y="437" width="0.1" height="15.0" fill="rgb(236,19,12)" rx="2" ry="2" />
<text  x="337.04" y="447.5" ></text>
</g>
<g >
<title>[unknown] (7 samples, 0.03%)</title><rect x="333.2" y="85" width="0.4" height="15.0" fill="rgb(245,181,42)" rx="2" ry="2" />
<text  x="336.21" y="95.5" ></text>
</g>
<g >
<title>[unknown] (2 samples, 0.01%)</title><rect x="334.0" y="453" width="0.1" height="15.0" fill="rgb(209,160,12)" rx="2" ry="2" />
<text  x="337.04" y="463.5" ></text>
</g>
<g >
<title>[unknown] (185 samples, 0.86%)</title><rect x="1093.5" y="469" width="10.1" height="15.0" fill="rgb(226,214,18)" rx="2" ry="2" />
<text  x="1096.48" y="479.5" ></text>
</g>
<g >
<title>[unknown] (14 samples, 0.07%)</title><rect x="1189.2" y="437" width="0.8" height="15.0" fill="rgb(230,15,48)" rx="2" ry="2" />
<text  x="1192.23" y="447.5" ></text>
</g>
<g >
<title>[unknown] (2,496 samples, 11.59%)</title><rect x="196.8" y="293" width="136.8" height="15.0" fill="rgb(213,122,29)" rx="2" ry="2" />
<text  x="199.79" y="303.5" >[unknown]</text>
</g>
<g >
<title>[unknown] (186 samples, 0.86%)</title><rect x="1169.0" y="325" width="10.2" height="15.0" fill="rgb(236,195,4)" rx="2" ry="2" />
<text  x="1172.01" y="335.5" ></text>
</g>
<g >
<title>[unknown] (2 samples, 0.01%)</title><rect x="24.9" y="341" width="0.1" height="15.0" fill="rgb(216,22,32)" rx="2" ry="2" />
<text  x="27.85" y="351.5" ></text>
</g>
<g >
<title>__GI___libc_write (5,503 samples, 25.56%)</title><rect x="32.0" y="517" width="301.6" height="15.0" fill="rgb(246,216,47)" rx="2" ry="2" />
<text  x="34.98" y="527.5" >__GI___libc_write</text>
</g>
<g >
<title>[unknown] (12 samples, 0.06%)</title><rect x="1189.3" y="293" width="0.7" height="15.0" fill="rgb(236,40,3)" rx="2" ry="2" />
<text  x="1192.34" y="303.5" ></text>
</g>
<g >
<title>[unknown] (3 samples, 0.01%)</title><rect x="333.8" y="453" width="0.1" height="15.0" fill="rgb(216,203,24)" rx="2" ry="2" />
<text  x="336.76" y="463.5" ></text>
</g>
<g >
<title>[unknown] (10 samples, 0.05%)</title><rect x="10.0" y="485" width="0.5" height="15.0" fill="rgb(236,194,1)" rx="2" ry="2" />
<text  x="13.00" y="495.5" ></text>
</g>
<g >
<title>[unknown] (3 samples, 0.01%)</title><rect x="333.8" y="437" width="0.1" height="15.0" fill="rgb(225,174,6)" rx="2" ry="2" />
<text  x="336.76" y="447.5" ></text>
</g>
<g >
<title>[unknown] (1,313 samples, 6.10%)</title><rect x="1107.2" y="501" width="72.0" height="15.0" fill="rgb(227,120,10)" rx="2" ry="2" />
<text  x="1110.24" y="511.5" >[unknown]</text>
</g>
<g >
<title>[unknown] (10 samples, 0.05%)</title><rect x="10.0" y="437" width="0.5" height="15.0" fill="rgb(250,152,22)" rx="2" ry="2" />
<text  x="13.00" y="447.5" ></text>
</g>
<g >
<title>[unknown] (747 samples, 3.47%)</title><rect x="1138.3" y="421" width="40.9" height="15.0" fill="rgb(236,74,7)" rx="2" ry="2" />
<text  x="1141.26" y="431.5" >[un..</text>
</g>
<g >
<title>[unknown] (126 samples, 0.59%)</title><rect x="1096.7" y="389" width="6.9" height="15.0" fill="rgb(217,23,7)" rx="2" ry="2" />
<text  x="1099.71" y="399.5" ></text>
</g>
<g >
<title>[unknown] (130 samples, 0.60%)</title><rect x="1172.1" y="309" width="7.1" height="15.0" fill="rgb(213,60,36)" rx="2" ry="2" />
<text  x="1175.08" y="319.5" ></text>
</g>
<g >
<title>[unknown] (3,739 samples, 17.37%)</title><rect x="128.7" y="341" width="204.9" height="15.0" fill="rgb(240,58,11)" rx="2" ry="2" />
<text  x="131.66" y="351.5" >[unknown]</text>
</g>
<g >
<title>[unknown] (3 samples, 0.01%)</title><rect x="333.8" y="357" width="0.1" height="15.0" fill="rgb(219,34,19)" rx="2" ry="2" />
<text  x="336.76" y="367.5" ></text>
</g>
<g >
<title>[unknown] (10 samples, 0.05%)</title><rect x="10.0" y="453" width="0.5" height="15.0" fill="rgb(228,158,50)" rx="2" ry="2" />
<text  x="13.00" y="463.5" ></text>
</g>
<g >
<title>[unknown] (60 samples, 0.28%)</title><rect x="1175.9" y="277" width="3.3" height="15.0" fill="rgb(234,3,20)" rx="2" ry="2" />
<text  x="1178.91" y="287.5" ></text>
</g>
<g >
<title>[unknown] (20 samples, 0.09%)</title><rect x="1178.1" y="213" width="1.1" height="15.0" fill="rgb(205,202,52)" rx="2" ry="2" />
<text  x="1181.11" y="223.5" ></text>
</g>
<g >
<title>mmap64 (2 samples, 0.01%)</title><rect x="1103.6" y="517" width="0.1" height="15.0" fill="rgb(251,138,36)" rx="2" ry="2" />
<text  x="1106.62" y="527.5" ></text>
</g>
<g >
<title>_start (2 samples, 0.01%)</title><rect x="334.0" y="517" width="0.1" height="15.0" fill="rgb(209,93,36)" rx="2" ry="2" />
<text  x="337.04" y="527.5" ></text>
</g>
<g >
<title>[unknown] (2 samples, 0.01%)</title><rect x="333.5" y="53" width="0.1" height="15.0" fill="rgb(238,65,16)" rx="2" ry="2" />
<text  x="336.49" y="63.5" ></text>
</g>
<g >
<title>[unknown] (3 samples, 0.01%)</title><rect x="333.8" y="389" width="0.1" height="15.0" fill="rgb(236,111,36)" rx="2" ry="2" />
<text  x="336.76" y="399.5" ></text>
</g>
<g >
<title>[unknown] (48 samples, 0.22%)</title><rect x="1176.6" y="261" width="2.6" height="15.0" fill="rgb(240,3,38)" rx="2" ry="2" />
<text  x="1179.57" y="271.5" ></text>
</g>
<g >
<title>[unknown] (678 samples, 3.15%)</title><rect x="1142.0" y="405" width="37.2" height="15.0" fill="rgb(214,195,44)" rx="2" ry="2" />
<text  x="1145.04" y="415.5" >[un..</text>
</g>
<g >
<title>[unknown] (65 samples, 0.30%)</title><rect x="1100.1" y="357" width="3.5" height="15.0" fill="rgb(229,37,3)" rx="2" ry="2" />
<text  x="1103.06" y="367.5" ></text>
</g>
<g >
<title>perf (14 samples, 0.07%)</title><rect x="1189.2" y="533" width="0.8" height="15.0" fill="rgb(211,220,44)" rx="2" ry="2" />
<text  x="1192.23" y="543.5" ></text>
</g>
</g>
</svg>
